<svg xmlns="http://www.w3.org/2000/svg" version="1.1" xmlns:xlink="http://www.w3.org/1999/xlink" xmlns:svgjs="http://svgjs.com/svgjs" width="1440" height="900" preserveAspectRatio="none" viewBox="0 0 1440 900"><g mask="url(&quot;#SvgjsMask1135&quot;)" fill="none"><rect width="1440" height="900" x="0" y="0" fill="url(#SvgjsLinearGradient1136)"></rect><path d="M52.645,145.954C85.695,144.175,114.243,126.373,132.287,98.626C152.46,67.607,168.542,28.456,149.807,-3.452C131.212,-35.121,89.369,-37.261,52.645,-37.012C16.525,-36.767,-22.325,-32.27,-42.259,-2.148C-63.993,30.695,-64.622,74.922,-43.374,108.081C-23.478,139.129,15.822,147.936,52.645,145.954" fill="rgba(28, 83, 142, 0.4)" class="triangle-float2"></path><path d="M-165.71 45.71 a211.42 211.42 0 1 0 422.84 0 a211.42 211.42 0 1 0 -422.84 0z" fill="rgba(28, 83, 142, 0.4)" class="triangle-float3"></path><path d="M-75.07 -44.92 a30.15 30.15 0 1 0 60.3 0 a30.15 30.15 0 1 0 -60.3 0z" fill="rgba(28, 83, 142, 0.4)" class="triangle-float1"></path><path d="M1161.22 -21.21 a77.57 77.57 0 1 0 155.14 0 a77.57 77.57 0 1 0 -155.14 0z" fill="rgba(28, 83, 142, 0.4)" class="triangle-float2"></path><path d="M1152.27 -12.27 a95.46 95.46 0 1 0 190.92 0 a95.46 95.46 0 1 0 -190.92 0z" fill="rgba(28, 83, 142, 0.4)" class="triangle-float1"></path><path d="M1296.56,120.963C1325.375,121.746,1348.247,99.687,1362.693,74.742C1377.179,49.729,1383.447,19.746,1369.991,-5.836C1355.654,-33.092,1327.357,-50.881,1296.56,-50.989C1265.585,-51.097,1235.91,-34.145,1222.233,-6.353C1209.78,18.951,1222.155,46.953,1236.374,71.308C1250.428,95.382,1268.694,120.205,1296.56,120.963" fill="rgba(28, 83, 142, 0.4)" class="triangle-float2"></path><path d="M-207.74 807.74 a295.48 295.48 0 1 0 590.96 0 a295.48 295.48 0 1 0 -590.96 0z" fill="rgba(28, 83, 142, 0.4)" class="triangle-float2"></path><path d="M183.101,1145.29C267.014,1146.945,337.574,1089.198,379.606,1016.553C421.715,943.774,439.234,852.186,393.522,781.614C350.546,715.265,262.089,710.002,183.101,713.178C111.176,716.07,38.023,736.262,0.08,797.433C-39.773,861.684,-35.629,942.149,-0.425,1009.06C37.596,1081.325,101.46,1143.68,183.101,1145.29" fill="rgba(28, 83, 142, 0.4)" class="triangle-float1"></path><path d="M179.158,1094.861C256.704,1095.632,338.982,1080.848,381.35,1015.894C427.212,945.582,426.98,853,383.922,780.937C341.883,710.581,260.905,671.61,179.158,677.501C105.958,682.776,56.855,743.804,19.84,807.176C-17.624,871.315,-52.172,946.96,-16.187,1011.94C20.544,1078.266,103.345,1094.107,179.158,1094.861" fill="rgba(28, 83, 142, 0.4)" class="triangle-float1"></path><path d="M1462.614,1179.685C1549.175,1180.735,1614.955,1110.508,1656.755,1034.701C1696.873,961.944,1709.621,875.886,1670.563,802.554C1629.164,724.825,1550.579,665.969,1462.614,670.195C1379.905,674.168,1324.654,747.451,1286.612,820.999C1252.253,887.427,1243.517,962.947,1276.462,1030.088C1314.046,1106.684,1377.3,1178.65,1462.614,1179.685" fill="rgba(28, 83, 142, 0.4)" class="triangle-float1"></path><path d="M1129.01 731 a141.99 141.99 0 1 0 283.98 0 a141.99 141.99 0 1 0 -283.98 0z" fill="rgba(28, 83, 142, 0.4)" class="triangle-float2"></path><path d="M1477.013,1136.74C1553.836,1137.602,1632.054,1115.099,1674.151,1050.831C1720.285,980.401,1728.873,888.817,1687.409,815.541C1645.381,741.27,1562.279,698.952,1477.013,702.448C1397.195,705.721,1333.081,761.688,1294.52,831.65C1257.45,898.909,1247.965,980.586,1287.388,1046.493C1325.903,1110.881,1401.99,1135.899,1477.013,1136.74" fill="rgba(28, 83, 142, 0.4)" class="triangle-float3"></path></g><defs><mask id="SvgjsMask1135"><rect width="1440" height="900" fill="#ffffff"></rect></mask><linearGradient x1="50%" y1="0%" x2="50%" y2="100%" gradientUnits="userSpaceOnUse" id="SvgjsLinearGradient1136"><stop stop-color="#0e2a47" offset="0"></stop><stop stop-color="rgba(0, 72, 165, 1)" offset="1"></stop></linearGradient><style>
            @keyframes float1 {
                0%{transform: translate(0, 0)}
                50%{transform: translate(-10px, 0)}
                100%{transform: translate(0, 0)}
            }

            .triangle-float1 {
                animation: float1 5s infinite;
            }

            @keyframes float2 {
                0%{transform: translate(0, 0)}
                50%{transform: translate(-5px, -5px)}
                100%{transform: translate(0, 0)}
            }

            .triangle-float2 {
                animation: float2 4s infinite;
            }

            @keyframes float3 {
                0%{transform: translate(0, 0)}
                50%{transform: translate(0, -10px)}
                100%{transform: translate(0, 0)}
            }

            .triangle-float3 {
                animation: float3 6s infinite;
            }
        </style></defs></svg>