<svg xmlns="http://www.w3.org/2000/svg" version="1.1" xmlns:xlink="http://www.w3.org/1999/xlink" xmlns:svgjs="http://svgjs.com/svgjs" width="1440" height="560" preserveAspectRatio="none" viewBox="0 0 1440 560"><g mask="url(&quot;#SvgjsMask1214&quot;)" fill="none"><rect width="1440" height="560" x="0" y="0" fill="#0e2a47"></rect><path d="M1012.35 365.25L1002.49 357.09 1008.28 345.67 998.42 337.51 1004.22 326.09 994.35 317.92 1000.15 306.51M1020.19 363.62L1010.32 355.46 1016.12 344.04 1006.25 335.88 1012.05 324.46 1002.18 316.3 1007.98 304.88" stroke="rgba(132, 16, 174, 1)" stroke-width="1.17" stroke-dasharray="3, 2"></path><path d="M1246.45 578.14 L1308.74 601.94L1234.7972430626728 632.8377569373272z" stroke="rgba(66, 74, 163, 1)" stroke-width="2.86" stroke-dasharray="2, 2"></path><path d="M977.8 216.15L965.04 215.11 963.25 202.43 950.49 201.39 948.7 188.71 935.94 187.67 934.15 174.99M983.29 210.33L970.53 209.29 968.74 196.61 955.98 195.57 954.19 182.89 941.43 181.85 939.64 169.17M988.78 204.51L976.02 203.47 974.23 190.79 961.47 189.75 959.68 177.07 946.92 176.03 945.13 163.35" stroke="rgba(132, 16, 174, 1)" stroke-width="1.94"></path><rect width="144" height="144" clip-path="url(&quot;#SvgjsClipPath1215&quot;)" x="1088.24" y="381.16" fill="url(#SvgjsPattern1216)" transform="rotate(61.89, 1160.24, 453.16)"></rect><path d="M1191.3 156.49L1203.34 160.86 1201.72 173.57 1213.75 177.94 1212.13 190.64 1224.16 195.02 1222.54 207.72" stroke="rgba(132, 16, 174, 1)" stroke-width="1.86" stroke-dasharray="3, 3"></path><rect width="134.8" height="134.8" clip-path="url(&quot;#SvgjsClipPath1217&quot;)" x="629.95" y="426.39" fill="url(#SvgjsPattern1218)" transform="rotate(4.34, 697.35, 493.79)"></rect><rect width="108" height="108" clip-path="url(&quot;#SvgjsClipPath1219&quot;)" x="889.03" y="386.93" fill="url(#SvgjsPattern1220)" transform="rotate(64.46, 943.03, 440.93)"></rect><circle r="87.33057814368733" cx="848.58" cy="107.35" stroke="rgba(61, 50, 227, 1)" stroke-width="1" stroke-dasharray="2, 2"></circle><path d="M916.49 526.4L906.08 533.86 896.52 525.35 886.11 532.81 876.55 524.3 866.14 531.76 856.57 523.25M916.91 518.41L906.5 525.88 896.94 517.36 886.53 524.82 876.97 516.31 866.56 523.77 856.99 515.26M917.33 510.42L906.92 517.89 897.36 509.37 886.95 516.84 877.39 508.32 866.98 515.79 857.41 507.27" stroke="rgba(132, 16, 174, 1)" stroke-width="1.68" stroke-dasharray="3, 2"></path><circle r="69.98119354230359" cx="711.95" cy="485.86" stroke="rgba(132, 16, 174, 1)" stroke-width="2.15" stroke-dasharray="3, 2"></circle><rect width="324.6" height="324.6" clip-path="url(&quot;#SvgjsClipPath1221&quot;)" x="910.9" y="170.13" fill="url(#SvgjsPattern1222)" transform="rotate(5.98, 1073.2, 332.43)"></rect><rect width="259.68" height="259.68" clip-path="url(&quot;#SvgjsClipPath1223&quot;)" x="-47.24" y="281.7" fill="url(#SvgjsPattern1224)" transform="rotate(30.38, 82.6, 411.54)"></rect></g><defs><mask id="SvgjsMask1214"><rect width="1440" height="560" fill="#ffffff"></rect></mask><pattern x="0" y="0" width="6" height="6" patternUnits="userSpaceOnUse" id="SvgjsPattern1216"><path d="M0 6L3 0L6 6" stroke="rgba(132, 16, 174, 1)" fill="none"></path></pattern><clipPath id="SvgjsClipPath1215"><circle r="36" cx="1160.24" cy="453.16"></circle></clipPath><pattern x="0" y="0" width="134.8" height="13.48" patternUnits="userSpaceOnUse" id="SvgjsPattern1218"><rect width="134.8" height="6.74" x="0" y="0" fill="rgba(132, 16, 174, 1)"></rect><rect width="134.8" height="6.74" x="0" y="6.74" fill="rgba(0, 0, 0, 0)"></rect></pattern><clipPath id="SvgjsClipPath1217"><circle r="33.7" cx="697.35" cy="493.79"></circle></clipPath><pattern x="0" y="0" width="6" height="6" patternUnits="userSpaceOnUse" id="SvgjsPattern1220"><path d="M0 6L3 0L6 6" stroke="rgba(132, 16, 174, 1)" fill="none"></path></pattern><clipPath id="SvgjsClipPath1219"><circle r="27" cx="943.03" cy="440.93"></circle></clipPath><pattern x="0" y="0" width="324.6" height="10.82" patternUnits="userSpaceOnUse" id="SvgjsPattern1222"><rect width="324.6" height="5.41" x="0" y="0" fill="rgba(132, 16, 174, 1)"></rect><rect width="324.6" height="5.41" x="0" y="5.41" fill="rgba(0, 0, 0, 0)"></rect></pattern><clipPath id="SvgjsClipPath1221"><circle r="81.15" cx="1073.2" cy="332.43"></circle></clipPath><pattern x="0" y="0" width="10.82" height="10.82" patternUnits="userSpaceOnUse" id="SvgjsPattern1224"><path d="M0 10.82L5.41 0L10.82 10.82" stroke="rgba(132, 16, 174, 1)" fill="none"></path></pattern><clipPath id="SvgjsClipPath1223"><circle r="64.92" cx="82.6" cy="411.54"></circle></clipPath></defs></svg>